<?xml version="1.0" encoding="UTF-8" ?>
<!DOCTYPE svg PUBLIC "-//W3C//DTD SVG 1.1//EN" "http://www.w3.org/Graphics/SVG/1.1/DTD/svg11.dtd">
<svg width="209pt" height="55pt" viewBox="0 0 209 55" version="1.1" xmlns="http://www.w3.org/2000/svg">
<g id="#8fc43bff">
<path fill="#8fc43b" opacity="1.00" d=" M 28.69 0.00 L 32.68 0.00 C 41.40 5.90 50.65 10.95 59.61 16.45 C 62.68 18.17 61.88 22.34 62.62 25.26 C 61.77 25.70 60.91 26.14 60.05 26.58 C 56.90 24.58 53.66 22.72 50.30 21.08 C 48.87 17.67 46.82 14.39 43.71 12.26 C 37.40 7.59 28.01 7.99 21.91 12.86 C 19.85 10.40 17.24 8.51 14.50 6.88 C 18.56 3.45 23.40 0.86 28.69 0.00 Z" />
</g>
<g id="#9dca39ff">
<path fill="#9dca39" opacity="1.00" d=" M 32.68 0.00 L 62.93 0.00 C 62.66 8.42 63.16 16.86 62.62 25.26 C 61.88 22.34 62.68 18.17 59.61 16.45 C 50.65 10.95 41.40 5.90 32.68 0.00 Z" />
</g>
<g id="#72b83eff">
<path fill="#72b83e" opacity="1.00" d=" M 9.27 12.89 C 10.81 10.72 12.52 8.66 14.50 6.88 C 17.24 8.51 19.85 10.40 21.91 12.86 C 20.19 14.50 18.64 16.32 17.37 18.32 C 14.61 16.61 11.90 14.80 9.27 12.89 Z" />
</g>
<g id="#ffffffff">
<path fill="#ffffff" opacity="1.00" d=" M 21.91 12.86 C 28.01 7.99 37.40 7.59 43.71 12.26 C 46.82 14.39 48.87 17.67 50.30 21.08 C 51.07 23.80 51.28 26.64 51.06 29.46 C 44.28 29.15 37.49 29.48 30.71 29.23 C 27.22 29.04 23.73 29.12 20.24 29.37 C 21.96 34.15 25.65 38.83 30.91 39.66 C 38.05 39.64 45.19 39.74 52.32 39.50 L 52.77 39.21 C 54.66 37.41 57.23 36.72 59.70 37.78 C 62.25 39.73 62.85 44.14 59.73 45.86 C 57.77 47.60 55.21 46.46 53.25 45.40 C 45.35 43.40 36.91 45.64 28.87 44.14 C 21.85 42.46 16.72 36.27 15.32 29.32 C 13.40 29.33 11.49 29.35 9.58 29.41 C 8.13 30.29 6.65 31.14 5.03 31.69 C 2.97 30.81 0.25 29.55 0.13 26.98 C -0.32 23.87 2.90 22.24 5.36 21.42 C 6.98 22.25 8.51 23.23 9.98 24.29 C 11.74 24.34 13.50 24.36 15.26 24.38 C 15.90 22.34 16.54 20.30 17.37 18.32 C 18.64 16.32 20.19 14.50 21.91 12.86 M 20.27 24.33 C 28.83 24.81 37.41 24.48 45.97 24.55 C 45.22 17.70 37.68 12.55 30.98 13.98 C 25.70 14.83 21.66 19.32 20.27 24.33 M 3.68 28.36 C 5.12 28.59 6.51 28.29 7.48 27.12 C 7.14 26.47 6.45 25.16 6.10 24.51 C 3.84 24.31 2.87 26.41 3.68 28.36 M 56.20 40.15 C 54.34 40.88 54.83 44.24 56.99 43.81 C 59.92 44.00 58.95 39.06 56.20 40.15 Z" />
</g>
<g id="#61b13fff">
<path fill="#61b13f" opacity="1.00" d=" M 5.36 21.42 C 6.39 18.46 7.56 15.53 9.27 12.89 C 11.90 14.80 14.61 16.61 17.37 18.32 C 16.54 20.30 15.90 22.34 15.26 24.38 C 13.50 24.36 11.74 24.34 9.98 24.29 C 8.51 23.23 6.98 22.25 5.36 21.42 Z" />
</g>
<g id="#78ba3dff">
<path fill="#78ba3d" opacity="1.00" d=" M 20.27 24.33 C 21.66 19.32 25.70 14.83 30.98 13.98 C 37.68 12.55 45.22 17.70 45.97 24.55 C 37.41 24.48 28.83 24.81 20.27 24.33 Z" />
</g>
<g id="#5fa30fff">
<path fill="#5fa30f" opacity="1.00" d=" M 178.52 16.52 C 180.43 16.53 182.35 16.53 184.26 16.54 C 184.26 20.29 184.33 24.05 184.15 27.80 C 186.02 24.85 189.44 22.97 192.97 23.57 C 196.82 23.77 199.67 27.26 199.99 30.95 C 200.60 35.94 200.12 40.98 200.27 46.00 C 198.35 46.00 196.44 46.00 194.54 46.00 C 194.36 41.25 194.88 36.46 194.31 31.74 C 193.43 26.98 185.62 27.06 184.52 31.66 C 183.91 36.40 184.43 41.22 184.26 46.00 C 182.35 46.00 180.44 46.00 178.54 46.00 C 178.52 36.17 178.55 26.34 178.52 16.52 Z" />
<path fill="#5fa30f" opacity="1.00" d=" M 117.80 18.24 C 119.70 18.26 121.60 18.26 123.51 18.26 C 123.48 20.09 123.46 21.91 123.45 23.73 C 125.05 23.73 126.65 23.74 128.26 23.74 C 128.26 25.31 128.26 26.89 128.27 28.46 C 126.67 28.46 125.07 28.47 123.48 28.48 C 123.54 32.15 123.28 35.83 123.56 39.49 C 123.95 41.75 126.85 41.01 128.50 41.36 C 128.49 42.89 128.48 44.42 128.49 45.96 C 124.96 46.17 120.24 46.24 118.50 42.46 C 117.05 37.95 117.99 33.12 117.74 28.47 C 116.99 28.47 115.48 28.46 114.73 28.46 C 114.73 26.89 114.74 25.32 114.74 23.76 C 115.48 23.74 116.97 23.72 117.71 23.71 C 117.74 21.89 117.76 20.07 117.80 18.24 Z" />
<path fill="#5fa30f" opacity="1.00" d=" M 74.14 24.29 C 80.36 21.70 88.30 25.32 89.37 32.23 C 87.46 32.26 85.55 32.27 83.64 32.28 C 82.62 30.50 81.34 28.32 78.97 28.43 C 71.57 27.63 71.06 40.88 78.05 41.54 C 80.67 41.75 82.60 39.88 83.65 37.70 C 85.56 37.71 87.46 37.74 89.37 37.78 C 88.19 44.37 80.62 48.00 74.54 45.66 C 65.23 42.92 64.98 27.38 74.14 24.29 Z" />
<path fill="#5fa30f" opacity="1.00" d=" M 96.51 24.63 C 103.04 21.38 112.41 25.23 113.05 32.95 C 115.03 41.32 106.01 48.80 98.09 45.74 C 88.60 43.48 87.80 28.44 96.51 24.63 M 98.42 29.50 C 94.62 32.68 95.55 40.60 101.00 41.44 C 105.53 42.10 108.60 37.03 107.27 33.04 C 106.78 29.04 101.52 26.96 98.42 29.50 Z" />
<path fill="#5fa30f" opacity="1.00" d=" M 135.93 24.82 C 140.23 22.68 145.98 23.12 149.50 26.58 C 152.02 28.97 152.68 32.67 152.33 36.00 C 146.82 36.00 141.31 35.98 135.81 36.01 C 136.23 38.18 136.85 40.94 139.39 41.47 C 142.26 42.57 145.27 41.00 146.40 38.25 C 148.34 38.25 150.28 38.26 152.22 38.30 C 150.84 44.67 143.33 47.87 137.47 45.63 C 128.72 42.97 127.95 28.86 135.93 24.82 M 135.84 33.52 C 139.55 33.54 143.25 33.55 146.96 33.49 C 146.64 31.14 145.56 28.42 142.86 28.13 C 139.31 27.11 135.98 29.99 135.84 33.52 Z" />
<path fill="#5fa30f" opacity="1.00" d=" M 160.24 24.25 C 166.44 21.73 174.30 25.36 175.37 32.23 C 173.46 32.26 171.56 32.28 169.66 32.29 C 168.59 30.14 166.74 27.95 164.05 28.43 C 158.81 28.74 157.96 36.01 160.49 39.55 C 162.78 42.90 168.40 41.66 169.40 37.82 C 171.39 37.74 173.38 37.74 175.37 37.74 C 174.22 44.38 166.58 48.02 160.49 45.64 C 151.18 42.85 151.01 27.25 160.24 24.25 Z" />
<path fill="#5fa30f" opacity="1.00" d=" M 202.26 40.01 C 204.26 40.00 206.26 40.00 208.26 40.00 C 208.26 42.00 208.26 44.00 208.26 46.00 C 206.26 46.00 204.26 46.00 202.27 45.99 C 202.26 44.00 202.26 42.00 202.26 40.01 Z" />
</g>
<g id="#81be3cff">
<path fill="#81be3c" opacity="1.00" d=" M 50.30 21.08 C 53.66 22.72 56.90 24.58 60.05 26.58 C 60.91 26.14 61.77 25.70 62.62 25.26 C 61.88 28.95 61.10 32.63 60.10 36.25 C 57.08 33.99 53.39 32.54 51.06 29.46 C 51.28 26.64 51.07 23.80 50.30 21.08 Z" />
</g>
<g id="#39a043ff">
<path fill="#39a043" opacity="1.00" d=" M 3.68 28.36 C 2.87 26.41 3.84 24.31 6.10 24.51 C 6.45 25.16 7.14 26.47 7.48 27.12 C 6.51 28.29 5.12 28.59 3.68 28.36 Z" />
<path fill="#39a043" opacity="1.00" d=" M 5.00 35.90 C 13.34 40.95 21.76 45.86 30.04 51.01 C 32.61 52.62 35.38 53.88 38.27 54.79 L 37.24 55.00 L 5.01 55.00 C 5.01 48.63 4.99 42.27 5.00 35.90 Z" />
<path fill="#39a043" opacity="1.00" d=" M 56.20 40.15 C 58.95 39.06 59.92 44.00 56.99 43.81 C 54.83 44.24 54.34 40.88 56.20 40.15 Z" />
</g>
<g id="#48a642ff">
<path fill="#48a642" opacity="1.00" d=" M 9.58 29.41 C 11.49 29.35 13.40 29.33 15.32 29.32 C 16.72 36.27 21.85 42.46 28.87 44.14 C 36.91 45.64 45.35 43.40 53.25 45.40 C 53.27 45.80 53.31 46.60 53.33 47.00 C 49.00 50.73 43.91 53.66 38.27 54.79 C 35.38 53.88 32.61 52.62 30.04 51.01 C 21.76 45.86 13.34 40.95 5.00 35.90 C 5.01 34.50 5.02 33.09 5.03 31.69 C 6.65 31.14 8.13 30.29 9.58 29.41 Z" />
</g>
<g id="#5eaf40ff">
<path fill="#5eaf40" opacity="1.00" d=" M 20.24 29.37 C 23.73 29.12 27.22 29.04 30.71 29.23 C 39.04 30.29 44.81 37.19 52.77 39.21 L 52.32 39.50 C 45.19 39.74 38.05 39.64 30.91 39.66 C 25.65 38.83 21.96 34.15 20.24 29.37 Z" />
</g>
<g id="#70b73eff">
<path fill="#70b73e" opacity="1.00" d=" M 30.71 29.23 C 37.49 29.48 44.28 29.15 51.06 29.46 C 53.39 32.54 57.08 33.99 60.10 36.25 L 59.70 37.78 C 57.23 36.72 54.66 37.41 52.77 39.21 C 44.81 37.19 39.04 30.29 30.71 29.23 Z" />
</g>
</svg>
